<?xml version="1.0" encoding="utf-8"?>
<!-- Generator: Adobe Illustrator 15.1.0, SVG Export Plug-In  -->
<!DOCTYPE svg PUBLIC "-//W3C//DTD SVG 1.1//EN" "http://www.w3.org/Graphics/SVG/1.1/DTD/svg11.dtd" [
	<!ENTITY ns_flows "http://ns.adobe.com/Flows/1.0/">
]>
<svg version="1.1"
	 xmlns="http://www.w3.org/2000/svg" xmlns:xlink="http://www.w3.org/1999/xlink" xmlns:a="http://ns.adobe.com/AdobeSVGViewerExtensions/3.0/"
	 x="0px" y="0px" width="550px" height="200px" viewBox="-21.301 -13.258 550 200" enable-background="new -21.301 -13.258 550 200"
	 xml:space="preserve">
<defs>
</defs>
<path fill="#95bc11" d="M163.029,119.803c0-6.166,1.115-12.424,3.354-18.77c2.236-6.348,5.591-12.088,10.065-17.23
	c4.472-5.137,10.094-9.34,16.867-12.604c6.77-3.266,14.75-4.896,23.939-4.896c9.187,0,17.166,1.631,23.94,4.896
	c6.769,3.264,12.39,7.467,16.866,12.604c4.47,5.143,7.826,10.883,10.065,17.23c2.237,6.346,3.356,12.604,3.356,18.77
	s-1.119,12.424-3.356,18.771c-2.239,6.348-5.595,12.09-10.065,17.229c-4.476,5.141-10.097,9.34-16.866,12.604
	c-6.774,3.266-14.753,4.896-23.94,4.896c-9.189,0-17.169-1.631-23.939-4.896c-6.773-3.264-12.395-7.463-16.867-12.604
	c-4.474-5.139-7.829-10.881-10.065-17.229C164.144,132.227,163.029,125.969,163.029,119.803 M193.134,119.803
	c0,3.627,0.634,7.014,1.903,10.156c1.271,3.145,3.022,5.834,5.26,8.072c2.236,2.236,4.807,3.988,7.709,5.258
	c2.901,1.27,5.984,1.902,9.248,1.902c3.265,0,6.348-0.633,9.25-1.902c2.901-1.27,5.469-3.021,7.707-5.258
	c2.236-2.238,3.99-4.928,5.259-8.072c1.269-3.143,1.904-6.529,1.904-10.156s-0.635-7.01-1.904-10.154
	c-1.269-3.143-3.023-5.832-5.259-8.072c-2.238-2.234-4.806-3.988-7.707-5.258c-2.902-1.271-5.985-1.906-9.25-1.906
	c-3.264,0-6.347,0.635-9.248,1.906c-2.902,1.27-5.473,3.023-7.709,5.258c-2.238,2.24-3.989,4.93-5.26,8.072
	C193.768,112.793,193.134,116.176,193.134,119.803"/>
<path fill="#95bc11" d="M388.604,170.221h-28.654V159.34h-0.362c-0.606,1.086-1.574,2.418-2.901,3.99
	c-1.332,1.57-3.176,3.111-5.533,4.623c-2.356,1.514-5.291,2.811-8.796,3.9c-3.508,1.088-7.798,1.631-12.876,1.631
	c-7.617,0-14.54-1.391-20.764-4.17c-6.23-2.781-11.518-6.59-15.87-11.428c-4.353-4.834-7.739-10.516-10.156-17.047
	c-2.42-6.527-3.627-13.602-3.627-21.219c0-8.461,1.387-16.02,4.17-22.668c2.781-6.648,6.498-12.271,11.155-16.867
	c4.653-4.592,9.975-8.07,15.959-10.428s12.18-3.537,18.589-3.537c4.473,0,8.371,0.484,11.698,1.451
	c3.323,0.971,6.166,2.086,8.524,3.355c2.356,1.268,4.289,2.57,5.803,3.898c1.511,1.332,2.688,2.422,3.537,3.264V36.016h30.104
	V170.221z M309.168,119.439c0,3.873,0.635,7.408,1.904,10.609c1.271,3.205,3.053,5.959,5.351,8.252
	c2.296,2.297,4.986,4.051,8.071,5.26c3.082,1.209,6.375,1.814,9.884,1.814c4.716,0,8.704-0.844,11.971-2.539
	c3.265-1.691,5.921-3.836,7.979-6.439c2.055-2.596,3.536-5.408,4.442-8.432c0.908-3.021,1.36-5.865,1.36-8.525
	c0-3.021-0.543-6.043-1.631-9.066c-1.089-3.021-2.693-5.713-4.806-8.07c-2.117-2.357-4.778-4.293-7.98-5.805
	c-3.206-1.51-6.864-2.268-10.974-2.268c-4.351,0-8.133,0.758-11.333,2.268c-3.205,1.512-5.867,3.51-7.981,5.986
	c-2.117,2.479-3.688,5.199-4.714,8.16C309.682,113.609,309.168,116.537,309.168,119.439"/>
<path fill="#95bc11" d="M30.917,170.221V116.52c0-2.402,0.081-4.965,0.245-7.688c0.163-2.727,0.735-5.236,1.717-7.525
	s2.51-4.17,4.581-5.643c2.071-1.471,5.018-2.209,8.832-2.209c3.819,0,6.789,0.82,8.916,2.455c2.126,1.635,3.681,3.623,4.661,5.969
	c0.982,2.344,1.582,4.854,1.799,7.525c0.221,2.672,0.328,5.043,0.328,7.115v53.701h0.103h30.813h0.104V116.52
	c0-2.402,0.081-4.965,0.245-7.688c0.163-2.727,0.736-5.236,1.718-7.525c0.981-2.289,2.509-4.17,4.58-5.643
	c2.072-1.471,5.018-2.209,8.833-2.209c3.819,0,6.788,0.82,8.914,2.455c2.128,1.635,3.681,3.623,4.661,5.969
	c0.983,2.344,1.584,4.854,1.801,7.525c0.219,2.672,0.327,5.043,0.327,7.115v53.701h30.915V116.52c0-4.471-0.162-8.424-0.489-11.857
	c-0.329-3.438-0.926-6.572-1.8-9.406c-0.871-2.838-2.099-5.537-3.681-8.1c-1.58-2.563-3.624-5.207-6.134-7.932
	c-2.508-2.727-5.317-4.936-8.425-6.625c-3.107-1.691-6.241-3-9.404-3.926c-3.162-0.926-6.242-1.555-9.242-1.881
	c-2.998-0.328-5.588-0.49-7.772-0.49c-7.523,0-14.066,1.172-19.627,3.516c-4.023,1.695-7.602,3.85-10.77,6.428
	c-1.656-1.396-3.409-2.627-5.282-3.646c-3.108-1.691-6.242-3-9.406-3.926c-3.162-0.926-6.242-1.555-9.243-1.881
	c-2.998-0.328-5.587-0.49-7.77-0.49c-7.523,0-14.068,1.172-19.628,3.516c-5.563,2.346-10.307,5.533-14.233,9.568
	c-1.962,1.965-3.68,4.063-5.152,6.299c-1.472,2.234-2.724,4.77-3.762,7.605c-1.034,2.836-1.824,6.135-2.372,9.898
	C0.274,106.951,0,111.393,0,116.52v53.701H30.917z"/>
<rect x="405.12" y="69.566" fill="#8d8d8d" width="30.105" height="100.654"/>
<polygon fill="#8d8d8d" points="492.89,69.566 507.398,69.566 507.398,92.418 492.89,92.418 492.89,170.221 462.782,170.221 
	462.782,92.418 447.912,92.418 447.912,69.566 462.782,69.566 462.782,36.016 492.89,36.016 "/>
<path fill="#8d8d8d" d="M445.201,12.907c0.328,4.743-2.857,7.058-6.1,10.021c-4.332,3.963-7.463,4.472-14.485,4
	c-7.126-0.479-12.145,0.541-16.504,4.531c-7.372,6.734-7.886,18.174-1.149,25.543c6.737,7.371,18.176,7.883,25.549,1.148
	c4.14-3.789,6.315-10.479,5.412-15.971c-0.929-5.647,1.369-9.93,5.907-14.078c3.703-3.387,6.848-5.781,11.469-5.271
	c3.781,0.417,6.671-0.679,8.805-2.63c4.804-4.391,5.421-11.563,1.032-16.364c-4.392-4.809-11.153-4.959-15.798-1.219
	C445.893,5.393,444.939,9.121,445.201,12.907z"/>
<linearGradient id="SVGID_1_" gradientUnits="userSpaceOnUse" x1="420.5283" y1="29.0332" x2="420.5283" y2="46.4629">
	<stop  offset="0" style="stop-color:#FFFFFF"/>
	<stop  offset="1" style="stop-color:#FFFFFF;stop-opacity:0"/>
	<a:midPointStop  offset="0" style="stop-color:#FFFFFF"/>
	<a:midPointStop  offset="0.35" style="stop-color:#FFFFFF"/>
	<a:midPointStop  offset="1" style="stop-color:#FFFFFF;stop-opacity:0"/>
</linearGradient>
<ellipse opacity="0.5" fill="url(#SVGID_1_)" cx="420.528" cy="37.748" rx="12.156" ry="8.715"/>
<linearGradient id="SVGID_2_" gradientUnits="userSpaceOnUse" x1="456.6377" y1="2.1973" x2="456.6377" y2="16.7578">
	<stop  offset="0" style="stop-color:#FFFFFF"/>
	<stop  offset="1" style="stop-color:#FFFFFF;stop-opacity:0"/>
	<a:midPointStop  offset="0" style="stop-color:#FFFFFF"/>
	<a:midPointStop  offset="0.35" style="stop-color:#FFFFFF"/>
	<a:midPointStop  offset="1" style="stop-color:#FFFFFF;stop-opacity:0"/>
</linearGradient>
<ellipse opacity="0.5" fill="url(#SVGID_2_)" cx="456.638" cy="9.478" rx="8.896" ry="7.28"/>
</svg>
